<svg xmlns="http://www.w3.org/2000/svg" width="16" height="16" viewBox="0 0 16 16">
  <path fill-rule="evenodd"
        d="M8 0.5a7.5 7.5 0 1 0 0 15 7.5 7.5 0 0 0 0-15z
           M8 1.34a6.66 6.66 0 1 0 0 13.32 6.66 6.66 0 0 0 0-13.32z
           M8 1.54a6.46 6.46 0 1 0 0 12.92 6.46 6.46 0 0 0 0-12.92z
           M8 2.27a5.73 5.73 0 1 0 0 11.46 5.73 5.73 0 0 0 0-11.46z
           M8 2.47a5.53 5.53 0 1 0 0 11.06 5.53 5.53 0 0 0 0-11.06z
           M8 3.21a4.79 4.79 0 1 0 0 9.58 4.79 4.79 0 0 0 0-9.58z
           M8 3.41a4.59 4.59 0 1 0 0 9.18 4.59 4.59 0 0 0 0-9.18z
           M8 4.6a3.4 3.4 0 1 0 0 6.8 3.4 3.4 0 0 0 0-6.8z"/>
  <path fill="none" stroke="#000000" stroke-width="1.1" stroke-linecap="round"
        d="M9.13 6.87a1.6 1.6 0 1 0 0 2.26"/>
</svg>
